<svg xmlns="http://www.w3.org/2000/svg" xmlns:xlink="http://www.w3.org/1999/xlink" width="512" height="512" viewBox="0 0 512 512"><defs><clipPath id="a"><rect width="512" height="512" transform="translate(1098.215 -993.785)" fill="#fff" stroke="#707070" stroke-width="1"/></clipPath><linearGradient id="b" x1="0.5" x2="0.5" y2="1" gradientUnits="objectBoundingBox"><stop offset="0" stop-color="#151617"/><stop offset="1" stop-color="#626364"/></linearGradient><linearGradient id="e" x1="0.5" x2="0.5" y2="1" gradientUnits="objectBoundingBox"><stop offset="0" stop-color="#f5f6f7"/><stop offset="1" stop-color="#7b7b7c"/></linearGradient></defs><g transform="translate(-1098.215 993.785)" clip-path="url(#a)"><g transform="translate(1154.641 -994.109)"><rect width="15.286" height="40.25" transform="translate(245.528 440.77)" fill="#808285"/><rect width="40.25" height="15.286" transform="translate(247.049 430.538)" fill="#808285"/><rect width="40.25" height="15.286" transform="translate(312.125 391.563)" fill="#808285"/><rect width="40.25" height="15.286" transform="translate(325.368 212.065)" fill="#808285"/><path d="M280.806,436.608l-35.2,31.432L43.652,298.4,80,267.633Z" transform="translate(0.056 0.321)" fill="url(#b)"/><rect width="11.276" height="40.25" transform="translate(138.342 32.336)" fill="#808285"/><path d="M363.872,224.093l-41.111,36.794-217.6-182.8L147.5,38.757Z" transform="translate(0.134 0.031)" fill="url(#b)"/><g transform="translate(74.617 260.304)" opacity="0.7"><path d="M293.764,441.15,274.591,446.5,74.522,275.662l9.878-15.67S299.249,434.79,293.764,441.15Z" transform="translate(-74.522 -259.992)" fill="#231f20"/></g><g transform="translate(74.617 257.093)" opacity="0.7"><path d="M293.764,437.928l-19.173,5.346L74.522,272.44,84.4,256.786S299.249,431.568,293.764,437.928Z" transform="translate(-74.522 -256.786)" fill="#231f20"/></g><g transform="translate(21.216 288.372)" opacity="0.6"><path d="M21.189,296.766l30.48-8.741L257.96,464.22l-10.109,28.928Z" transform="translate(-21.189 -288.025)" fill="#231f20"/></g><path d="M14.516,214.408c-18.635-16.638-16.592-44.644-.522-62.665L43.029,128.7,349.055,394.168l-61.774,51.511Z" transform="translate(0.002 0.145)" fill="url(#b)"/><g transform="translate(137.605 28.05)" opacity="0.7"><path d="M372.465,228.516l-20.832,5.469L137.43,44.854l11-16.822S378.533,221.71,372.465,228.516Z" transform="translate(-137.43 -28.032)" fill="#231f20"/></g><path d="M388.948,159.542c14.395,12.859,12.429,34.95-.43,49.345l-23.044,18.435L138.167,31.663l23.044-19.972a34.95,34.95,0,0,1,49.345-2.8Z" transform="translate(0.176 -0.018)" stroke="#151617" stroke-width="3" fill="url(#e)"/><path d="M10.032,352.767c-14.41-12.843-12.428-34.935.415-49.33L33.491,285l227.323,195.66-23.044,19.972a34.935,34.935,0,0,1-49.33,2.8Z" transform="translate(0 0.343)" stroke="#151617" stroke-width="3" fill="url(#e)"/><g transform="translate(16.9 108.566)" opacity="0.5"><path d="M363.845,397.589,326.16,413.919,16.878,142.045l24.242-33.6S376.366,383.5,363.845,397.589Z" transform="translate(-16.878 -108.447)" fill="#231f20"/></g><path d="M384.822,312.52c19.972,17.851,17.283,48.562-.584,68.579l-32.077,25.687L23.337,121.837l68.3-57.4Z" transform="translate(0.03 0.064)" stroke="#151617" stroke-width="3" fill="url(#e)"/></g></g></svg>