<svg xmlns="http://www.w3.org/2000/svg" xmlns:xlink="http://www.w3.org/1999/xlink" width="512" height="512" viewBox="0 0 512 512"><defs><clipPath id="a"><rect width="512" height="512" transform="translate(1098 -994)" fill="#fff" stroke="#707070" stroke-width="1"/></clipPath><linearGradient id="b" x1="0.5" x2="0.5" y2="1" gradientUnits="objectBoundingBox"><stop offset="0" stop-color="#f5f6f7"/><stop offset="1" stop-color="#7b7b7c"/></linearGradient><linearGradient id="d" x1="0.5" x2="0.5" y2="1" gradientUnits="objectBoundingBox"><stop offset="0" stop-color="#f5f6f7"/><stop offset="1" stop-color="#6c696a"/></linearGradient><linearGradient id="f" x1="0.5" x2="0.5" y2="1" gradientUnits="objectBoundingBox"><stop offset="0" stop-color="#151617"/><stop offset="1" stop-color="#626364"/></linearGradient></defs><g transform="translate(-1098 994)" clip-path="url(#a)"><g transform="translate(1154.679 -994.018)"><rect width="15.267" height="40.199" transform="translate(245.217 440.23)" fill="#808285"/><rect width="40.199" height="15.267" transform="translate(246.736 430.012)" fill="#808285"/><rect width="40.199" height="15.267" transform="translate(311.73 391.086)" fill="#808285"/><rect width="40.199" height="15.267" transform="translate(324.956 211.814)" fill="#808285"/><path d="M280.506,436.394l-35.152,31.392L43.652,298.366l36.3-30.733Z" fill="url(#b)"/><rect width="11.262" height="40.199" transform="translate(138.167 32.313)" fill="#808285"/><path d="M363.544,223.859l-41.059,36.747L105.163,78.036l42.286-39.279Z" fill="url(#b)"/><g opacity="0.7"><path d="M293.487,440.921l-19.148,5.339L74.522,275.643l9.866-15.65S298.964,434.569,293.487,440.921Z" fill="#231f20"/></g><g opacity="0.7"><path d="M293.487,437.7l-19.148,5.339L74.522,272.42l9.866-15.635S298.964,431.346,293.487,437.7Z" fill="url(#d)"/></g><g opacity="0.6"><path d="M21.189,296.755l30.441-8.73L257.66,464l-10.1,28.891Z" fill="#231f20"/></g><path d="M14.5,214.3c-18.611-16.617-16.571-44.588-.522-62.585l29-23.015L348.615,393.832l-61.7,51.446Z" fill="url(#b)"/><g opacity="0.7"><path d="M372.167,228.262l-20.806,5.462L137.43,44.833l10.986-16.8S378.228,221.465,372.167,228.262Z" fill="#231f20"/></g><path d="M388.631,159.34c14.377,12.842,12.413,34.906-.43,49.283l-23.015,18.412L138.167,31.623l23.015-19.946a34.906,34.906,0,0,1,49.283-2.792Z" stroke="#f5f6f7" stroke-width="3" fill="url(#f)"/><path d="M10.019,352.681c-14.392-12.827-12.413-34.891.414-49.267L33.448,285,260.483,480.414l-23.015,19.946a34.891,34.891,0,0,1-49.267,2.793Z" stroke="#f5f6f7" stroke-width="3" fill="url(#f)"/><g opacity="0.5"><path d="M363.406,397.223l-37.637,16.31L16.878,142l24.212-33.556S375.911,383.153,363.406,397.223Z" fill="#231f20"/></g><path d="M384.365,312.206c19.946,17.829,17.261,48.5-.583,68.493l-32.037,25.654L23.337,121.765,91.554,64.442Z" stroke="#f5f6f7" stroke-width="3" fill="url(#f)"/></g></g></svg>